<svg xmlns="http://www.w3.org/2000/svg" xmlns:svg="http://www.w3.org/2000/svg" id="svg2" width="144" height="144" version="1.1"><defs id="defs4"><filter id="filter3940"><feGaussianBlur id="feGaussianBlur3942" stdDeviation="2.022"/></filter><clipPath id="clipPath4309" clipPathUnits="userSpaceOnUse"><path id="path4311" d="m 139.93694,72.908188 a 67.400818,67.400818 0 1 1 -134.8016403,0 67.400818,67.400818 0 1 1 134.8016403,0 z" transform="matrix(1.0091934,0,0,1.0091934,-1.2029711,906.78372)" style="fill:#00a6e3;fill-opacity:1;fill-rule:evenodd;stroke:none"/></clipPath></defs><metadata id="metadata7"/><g id="layer1" transform="translate(0,-908.36218)"><path id="path3793" d="m 139.93694,72.908188 c 0,37.224442 -30.17638,67.400822 -67.400822,67.400822 -37.224444,0 -67.4008183,-30.17638 -67.4008183,-67.400822 0,-37.224444 30.1763743,-67.400818 67.4008183,-67.400818 37.224442,0 67.400822,30.176374 67.400822,67.400818 z" transform="matrix(0.99794806,0,0,0.99794806,-0.38727779,909.6036)" style="opacity:.5;fill:#001821;fill-opacity:1;fill-rule:evenodd;stroke:none;filter:url(#filter3940)"/><path style="fill:#00a6e3;fill-opacity:1;fill-rule:evenodd;stroke:none" id="path3783" d="m 139.93694,72.908188 a 67.400818,67.400818 0 1 1 -134.8016403,0 67.400818,67.400818 0 1 1 134.8016403,0 z" transform="matrix(1.0091934,0,0,1.0091934,-1.2029711,906.78372)"/><g style="fill:#001821;fill-opacity:1;stroke:none;opacity:.05" id="g4160" clip-path="url(#clipPath4309)"><path id="path4162" d="m 71.919763,933.2874 41.483597,81.7636 70.71068,70.7107 -41.4836,-81.7636 z" style="fill:#001821;fill-opacity:1"/><path id="path4164" d="m 113.40336,1015.051 -39.71834,-6.2586 70.71068,70.7107 39.71834,6.2586 z" style="fill:#001821;fill-opacity:1"/><path id="path4166" d="m 73.68502,1008.7924 -1.765257,-70.77089 70.710677,70.71069 1.76526,70.7709 z" style="fill:#001821;fill-opacity:1"/><path id="path4168" d="m 71.919763,938.02151 -0.962868,70.77089 70.710675,70.7107 0.96287,-70.7709 z" style="fill:#001821;fill-opacity:1"/><path id="path4170" d="m 70.956895,1008.7924 -40.360252,6.2586 70.710677,70.7107 40.36025,-6.2586 z" style="fill:#001821;fill-opacity:1"/></g><path style="fill:#fff;fill-opacity:1;stroke:none" id="rect3790" d="m 71.919762,933.2874 41.483598,81.7636 -39.718341,-6.2586 -1.765257,-70.77089 -0.962868,70.77089 -40.360252,6.2586 z"/></g></svg>